Coordinates
version=1
nRows=11
nColumns=36
inDegrees=yes

Units are S.I. units (second, meters, Newtons, ...)
If the header above contains a line with 'inDegrees', this indicates whether rotational values are in degrees (yes) or radians (no).

endheader
time	pelvis_tilt	pelvis_list	pelvis_rotation	pelvis_tx	pelvis_ty	pelvis_tz	hip_flexion_r	hip_adduction_r	hip_rotation_r	knee_angle_r	knee_angle_r_beta	ankle_angle_r	subtalar_angle_r	mtp_angle_r	hip_flexion_l	hip_adduction_l	hip_rotation_l	knee_angle_l	knee_angle_l_beta	ankle_angle_l	subtalar_angle_l	mtp_angle_l	lumbar_extension	lumbar_bending	lumbar_rotation	arm_flex_r	arm_add_r	arm_rot_r	elbow_flex_r	pro_sup_r	arm_flex_l	arm_add_l	arm_rot_l	elbow_flex_l	pro_sup_l
      1.88333330	     -4.43693265	     -0.74462430	      9.26867906	      0.56549405	      1.12461332	     -0.15810746	     10.35226509	     -2.02917127	     -5.03069434	      0.40993969	      0.00715480	    -34.94912751	      7.08210331	     -7.49999987	      9.94610915	     -1.83267690	    -11.48358775	      2.90390934	      0.05068278	    -36.25748630	      1.12124479	     -7.49999987	     10.66982831	      0.64888404	    -12.11772270	     89.52330476	    -38.18329525	     86.37007630	    108.94150977	     76.01213614	    -46.20579180	    -60.14707609	    -32.66002518	    141.32966736	     84.38791109
      1.90000000	     -4.13239184	     -0.66126773	      8.64370389	      0.56847513	      1.16252950	     -0.15755724	      9.96802487	     -1.30103072	     -7.78171048	      0.41583565	      0.00725770	    -39.54207124	      6.04736470	     -7.49999987	      9.62958958	     -2.29049845	    -11.90557086	      2.69758822	      0.04708180	    -39.30729557	      1.38528181	     -7.49999987	     10.37346309	     -0.21494681	    -13.01861646	     82.57327090	    -41.80042896	     86.25272262	    109.43874284	     75.99988294	    -51.99897372	    -53.01538031	    -31.64329063	    139.73152685	     87.40432448
      1.91666670	     -3.21726493	     -0.97688955	      8.72739004	      0.56219025	      1.18913726	     -0.15623794	      9.10201309	     -0.33560507	     -8.31253266	      1.01477125	      0.01771110	    -42.37871018	      5.06278137	     -7.49999987	      9.53350207	     -3.07060712	    -11.18542012	      3.81140414	      0.06652155	    -41.56752093	      1.51753473	     -7.49999987	      9.14817160	     -0.97069605	    -13.31019374	     72.74048384	    -46.77134199	     81.84308316	    110.41963064	     75.42428472	    -51.20612060	    -48.98849347	    -27.18910599	    136.19438889	     87.30047284
      1.93333330	     -2.23104484	     -1.17693910	      9.61880080	      0.55738407	      1.21355954	     -0.16115094	      8.70734286	     -0.09582309	     -9.15214238	      2.96395761	      0.05173082	    -43.09496174	      3.65581132	     -7.49999987	      9.61286285	     -3.47985930	     -9.56231936	      5.76188901	      0.10056393	    -42.08698122	      1.76379072	     -7.49999987	      7.91932270	     -1.44690101	     -9.91315299	     58.21795015	    -54.30026073	     71.41290822	    108.29440586	     78.39802952	    -40.94606725	    -50.42983393	    -15.91243939	    129.85777460	     90.01783881
      1.95000000	     -1.62940321	     -1.13786505	      9.59805308	      0.55426916	      1.24420421	     -0.16321666	      9.12254493	     -0.24851190	     -8.67480558	      4.97957289	      0.08690994	    -42.42089525	      3.75959820	     -7.49999987	      9.83782932	     -3.44737948	     -8.26824055	      7.65540659	      0.13361205	    -41.39872471	      2.84333087	     -7.49999987	      6.38851614	     -2.08020622	     -8.89900463	     40.51654785	    -57.09470736	     55.58291318	    105.67229293	     81.06630256	    -35.84402505	    -46.90872326	     -9.36958754	    123.79754498	     91.59985502
      1.96666670	     -1.15210055	     -0.95476677	      9.62461847	      0.54993947	      1.26903704	     -0.16142294	      9.17908899	     -0.55486631	     -7.90439074	      5.67928494	      0.09912222	    -38.92658352	      5.36919286	     -7.49999987	     10.22309211	     -3.28661545	     -7.10726877	      8.78905611	      0.15339797	    -39.91524809	      4.36793426	     -7.49999987	      5.05057146	     -2.73375731	     -3.99180667	     13.89202163	    -58.69117994	     31.12027779	    103.90382906	     85.74222177	    -24.73205284	    -45.89750281	      2.40199996	    114.62088259	     91.03882016
      1.98333330	     -1.12899301	     -0.83850276	      9.52765940	      0.54836614	      1.29067659	     -0.16282768	      9.82215809	     -0.94425748	     -7.31444698	      5.44595159	      0.09504979	    -37.26598122	      6.41989565	     -7.49999987	     10.89668401	     -3.01070455	     -7.18675505	      8.84157486	      0.15431459	    -39.93670601	      4.77844712	     -7.49999987	      3.83108540	     -2.71358655	     -0.03357691	     -4.15127082	    -55.91311339	     15.25104137	     99.51538013	     87.74311339	    -17.59953034	    -42.96481926	      9.93694291	    105.32592748	     88.64231770
      2.00000000	     -0.77621381	     -0.87546731	      9.78298113	      0.54928389	      1.30033756	     -0.16349409	      9.49234362	     -1.25803127	     -6.61855285	      4.96584221	      0.08667030	    -35.94903445	      6.57412507	     -7.49999987	     11.00305299	     -2.97838097	     -7.09419051	      8.43719137	      0.14725677	    -38.32984901	      4.58496243	     -7.49999987	      3.04282383	     -2.45363907	     -0.03611204	     -6.51566380	    -52.77731792	     15.54077380	     92.04655812	     87.59940033	    -17.72061595	    -39.55871658	      8.97809120	     98.44575306	     88.37905311
      2.01666670	     -1.10705128	     -0.58737855	     10.04732763	      0.54764146	      1.32016714	     -0.16474626	     10.09934208	     -1.80779698	     -6.15191178	      4.12510736	      0.07199671	    -33.72561847	      7.68540594	     -7.49999987	     11.41029103	     -2.46714252	     -7.61249203	      7.59689680	      0.13259086	    -36.25837766	      4.61521578	     -7.49999987	      3.03425567	     -2.44960680	      1.04088628	     -9.87863866	    -48.43515438	     13.34541091	     84.24366814	     88.64118632	    -15.09437618	    -36.83447235	     11.89869046	     89.45418037	     87.89095811
      2.03333330	     -0.90978102	     -0.42012261	      9.81575722	      0.54896807	      1.32736294	     -0.16462400	     10.10156838	     -2.04722730	     -5.38910918	      3.68762118	      0.06436113	    -31.65207830	      8.38493490	     -7.49999987	     11.15486851	     -2.14663100	     -9.38503982	      6.62655722	      0.11565524	    -34.30488121	      3.38733678	     -7.49999987	      2.39914170	     -2.27827160	      1.30133315	    -11.72030471	    -45.28784135	     13.71503725	     78.25626163	     88.41236509	    -15.49749869	    -33.78356832	     11.08044872	     83.35830601	     87.58177623
      2.05000000	     -1.19118104	     -0.27716260	      9.70345562	      0.54792717	      1.33181508	     -0.16456856	     10.34537685	     -2.50872041	     -5.86628907	      3.32180073	      0.05797636	    -30.79439769	      8.42203165	     -7.49999987	     11.38073447	     -1.81947156	    -11.38440231	      5.72514052	      0.09992255	    -33.49019608	      3.10211695	     -7.49999987	      2.78501990	     -2.11757153	      1.86813615	    -12.55677339	    -42.82072085	     16.12330780	     71.48034279	     87.51765219	    -15.66671912	    -31.69656023	     12.35338399	     78.33272666	     86.82458158
